<?xml version="1.0" ?>
<!-- Uploaded to: SVG Repo, www.svgrepo.com, Generator: SVG Repo Mixer Tools -->
<svg width="800px" height="800px" viewBox="0 0 50 50" id="Message_And_Communication_Icons" version="1.1" xml:space="preserve" xmlns="http://www.w3.org/2000/svg" xmlns:xlink="http://www.w3.org/1999/xlink">
<g>
<g>
<g>
<path d="M25.8,24.3c-0.1,0-0.3,0-0.4,0C25.5,24.3,25.6,24.3,25.8,24.3z" style="fill:#4DE0F9;"/>
<path d="M34.4,16L32,18.2v-1.9l-1,0.9v-6.4H4.4v19.1h16.2v-1.2c0-2.4,2-4.4,4.5-4.4c0.1,0,0.2,0,0.3,0     c-0.9-0.2-1.7-0.7-2.2-1.5c-0.9-0.6-1.6-1.7-1.5-2.9c0-1.9,1.6-3.4,3.4-3.4c1.2,0,2.2,0.6,2.8,1.6c0.9,0.6,1.6,1.7,1.5,2.9     c0,1.9-1.6,3.4-3.4,3.4c-0.1,0-0.1,0-0.2,0c1.1,0.2,2.1,0.8,2.8,1.7c1.1,0.8,1.9,2.1,1.9,3.7v0.1h15.2V16H34.4z" style="fill:#4DE0F9;"/>
</g>
<g>
<g>
<rect height="1.2" style="fill:#0D5FC3;" width="2" x="24" y="30.9"/>
</g>
</g>
<g>
<g>
<polygon points="29.3,39.8 29.3,34.9 26.1,34.9 26.1,39.8 23.9,39.8 23.9,41 26.1,41 29.3,41 34.8,41       34.8,39.8     " style="fill:#4DE0F9;"/>
</g>
</g>
<g>
<g>
<g>
<polygon points="46.2,34.5 3.8,34.5 3.8,8.4 29.3,8.4 29.3,9.6 5,9.6 5,33.3 45,33.3 45,17.2 46.2,17.2             " style="fill:#0D5FC3;"/>
</g>
</g>
<g>
<g>
<rect height="6.1" style="fill:#0D5FC3;" width="1.2" x="21.3" y="33.9"/>
</g>
</g>
<g>
<g>
<rect height="6.1" style="fill:#0D5FC3;" width="1.2" x="27.5" y="33.9"/>
</g>
</g>
<g>
<g>
<rect height="1.2" style="fill:#0D5FC3;" width="18.8" x="15.6" y="39.4"/>
</g>
</g>
</g>
<g>
<g>
<rect height="1.2" style="fill:#0D5FC3;" width="1.3" x="24.4" y="10.3"/>
</g>
</g>
</g>
<g>
<g>
<g>
<path d="M25,23.9C25,23.9,25,23.9,25,23.9c-1.1,0-2.1-0.4-2.9-1.2C21.4,22,21,21,21,19.9c0-2.2,1.8-4,4-4      c0,0,0,0,0,0c1.1,0,2.1,0.4,2.8,1.2c0.7,0.8,1.2,1.8,1.1,2.8C29,22.2,27.2,23.9,25,23.9z M25,17.1c-1.5,0-2.8,1.2-2.8,2.8      c0,1.5,1.2,2.8,2.8,2.8c0,0,0,0,0,0c1.5,0,2.8-1.2,2.8-2.8l0,0c0-0.8-0.3-1.5-0.8-2S25.8,17.1,25,17.1C25,17.1,25,17.1,25,17.1z      " style="fill:#0D5FC3;"/>
</g>
</g>
<g>
<g>
<path d="M30,29.8h-1.2v-1.1c0-1-0.4-2-1.1-2.7c-0.7-0.7-1.7-1.1-2.7-1.1c-1,0-2,0.4-2.7,1.1      c-0.7,0.7-1.1,1.7-1.1,2.7v1.2H20v-1.2c0-1.3,0.6-2.6,1.5-3.5c1-0.9,2.2-1.5,3.6-1.4c1.3,0,2.6,0.6,3.5,1.5      c0.9,1,1.4,2.2,1.4,3.6V29.8z" style="fill:#0D5FC3;"/>
</g>
</g>
</g>
<g>
<g>
<g>
<path d="M30.4,18.5V4.9h16.4v10.7H33.6L30.4,18.5z M31.6,6.1v9.8l1.6-1.5h12.4V6.1H31.6z" style="fill:#0D5FC3;"/>
</g>
</g>
<g>
<g>
<g>
<rect height="1.2" style="fill:#0D5FC3;" width="1.8" x="40.2" y="8.4"/>
</g>
</g>
<g>
<g>
<rect height="1.2" style="fill:#0D5FC3;" width="3.6" x="35.2" y="8.4"/>
</g>
</g>
<g>
<g>
<rect height="1.2" style="fill:#0D5FC3;" width="6.7" x="35.2" y="11"/>
</g>
</g>
</g>
</g>
</g>
</svg>